<?xml version="1.0" standalone="no"?>
<!DOCTYPE svg PUBLIC "-//W3C//DTD SVG 20010904//EN"
 "http://www.w3.org/TR/2001/REC-SVG-20010904/DTD/svg10.dtd">
<svg version="1.0" xmlns="http://www.w3.org/2000/svg"
 width="349.000000pt" height="330.000000pt" viewBox="0 0 349.000000 330.000000"
 preserveAspectRatio="xMidYMid meet">
<metadata>
Created by potrace 1.16, written by Peter Selinger 2001-2019
</metadata>
<g transform="translate(0.000000,330.000000) scale(0.100000,-0.100000)"
fill="#000000" stroke="none">
<path d="M2215 3104 c-353 -78 -639 -367 -721 -729 -24 -104 -24 -300 0 -404
30 -136 96 -275 180 -381 l35 -45 -119 -121 c-66 -66 -120 -127 -120 -135 0
-8 7 -25 16 -37 l15 -22 512 0 c460 0 521 2 602 19 346 71 616 321 722 668 24
81 27 102 27 258 0 157 -2 177 -27 260 -99 322 -342 565 -657 656 -101 29
-360 36 -465 13z m-103 -440 c62 -32 97 -114 77 -186 -8 -33 -29 -60 -95 -123
-46 -44 -84 -83 -84 -87 0 -5 29 -8 64 -8 89 0 116 -12 116 -50 0 -24 -6 -33
-26 -40 -38 -15 -254 -12 -284 3 -48 24 -38 43 93 176 72 72 128 138 132 153
16 64 -44 111 -108 85 -29 -12 -38 -24 -52 -66 -20 -60 -42 -77 -73 -55 -27
19 -28 55 -3 110 42 93 153 133 243 88z m366 4 c13 -13 18 -451 6 -482 -7 -19
-47 -21 -62 -3 -5 6 -13 33 -16 60 l-7 47 -99 0 c-76 0 -102 4 -114 16 -9 8
-16 20 -16 27 0 11 177 250 234 314 29 34 54 41 74 21z m370 -50 c7 -7 12 -19
12 -27 0 -20 -477 -930 -500 -955 -12 -12 -25 -16 -38 -12 -36 12 -35 40 4
118 96 191 448 855 462 871 18 20 43 22 60 5z m170 -563 c2 -25 -23 -69 -138
-240 -132 -196 -170 -245 -190 -245 -14 0 -40 30 -40 46 0 8 52 91 116 185 63
94 118 177 121 185 4 11 -12 14 -94 14 -104 0 -143 13 -143 49 0 38 18 42 195
39 l170 -3 3 -30z"/>
<path d="M740 2613 c-277 -113 -432 -336 -432 -623 0 -124 4 -137 262 -740
253 -591 318 -733 365 -804 82 -124 219 -216 372 -250 87 -19 228 -20 303 -2
89 21 209 76 245 112 36 36 58 107 48 159 -7 33 -161 396 -196 459 -27 50 -73
82 -131 90 -44 7 -54 4 -196 -50 -55 -21 -94 -14 -128 24 -32 36 -323 708
-325 749 -2 51 30 84 125 130 109 53 140 90 146 173 4 52 -1 70 -53 196 -87
208 -149 336 -176 361 -55 50 -131 56 -229 16z m148 -110 c16 -17 64 -115 116
-235 79 -182 88 -211 78 -232 -13 -29 -57 -60 -74 -53 -7 2 -53 97 -102 210
-48 114 -94 212 -102 218 -20 16 -61 3 -80 -26 -15 -24 -13 -32 77 -241 64
-148 90 -220 83 -228 -65 -88 -69 -98 -69 -170 0 -68 4 -81 117 -341 187 -432
203 -466 238 -502 68 -72 162 -83 287 -33 90 36 116 37 140 6 11 -13 59 -117
108 -230 76 -176 87 -210 79 -233 -10 -28 -75 -74 -81 -57 -3 5 -46 103 -96
219 -92 209 -92 210 -125 213 -41 4 -62 -12 -62 -48 0 -15 38 -116 85 -225 47
-109 84 -200 81 -202 -2 -3 -22 -9 -43 -14 -93 -21 -219 -1 -323 51 -79 40
-179 135 -218 207 -58 110 -553 1268 -568 1328 -42 178 8 347 142 482 56 57
90 81 164 118 52 25 100 45 108 45 7 0 26 -12 40 -27z"/>
</g>
</svg>
