<?xml version="1.0" standalone="no"?>
<!DOCTYPE svg PUBLIC "-//W3C//DTD SVG 20010904//EN"
 "http://www.w3.org/TR/2001/REC-SVG-20010904/DTD/svg10.dtd">
<svg version="1.0" xmlns="http://www.w3.org/2000/svg"
 width="349.000000pt" height="330.000000pt" viewBox="0 0 349.000000 330.000000"
 preserveAspectRatio="xMidYMid meet">
<metadata>
Created by potrace 1.16, written by Peter Selinger 2001-2019
</metadata>
<g transform="translate(0.000000,330.000000) scale(0.100000,-0.100000)"
fill="#000000" stroke="none">
<path d="M791 3074 c-64 -32 -106 -87 -120 -157 -6 -29 -36 -236 -66 -462 -31
-225 -92 -673 -135 -993 -44 -321 -80 -603 -80 -626 0 -82 39 -155 105 -196
20 -13 72 -28 123 -36 48 -8 102 -17 120 -20 l32 -5 0 -107 c0 -82 5 -116 19
-148 26 -57 92 -111 155 -124 35 -8 276 -10 786 -8 l736 3 52 27 52 27 49 -30
c60 -38 67 -36 169 41 205 154 353 363 438 615 56 167 83 405 50 438 -8 8 -52
20 -97 27 -153 22 -314 79 -432 151 -37 23 -59 30 -84 27 l-33 -4 0 508 c0
567 2 549 -69 623 -26 26 -41 53 -46 80 -13 77 -67 143 -139 170 -45 16 -1409
205 -1485 205 -31 0 -65 -9 -100 -26z m813 -170 c413 -57 715 -102 734 -111
27 -13 62 -56 62 -77 0 -3 -330 -7 -732 -8 -729 -3 -733 -3 -773 -25 -51 -27
-89 -67 -112 -118 -17 -37 -18 -98 -21 -958 l-3 -919 -52 7 c-125 15 -155 25
-186 61 -24 27 -31 44 -31 76 0 23 20 188 45 367 67 494 192 1410 210 1551 19
149 28 180 59 209 20 19 61 37 90 40 5 1 324 -42 710 -95z m876 -329 c51 -46
50 -38 50 -600 l0 -526 -56 -25 c-79 -35 -215 -73 -307 -86 -44 -6 -85 -18
-93 -25 -32 -32 -3 -276 51 -440 61 -182 151 -334 281 -472 74 -79 75 -80 52
-93 -18 -10 -172 -14 -743 -16 -814 -3 -788 -5 -825 69 -20 37 -20 63 -20
1079 0 859 2 1046 14 1073 19 45 59 79 102 86 20 3 360 4 754 1 700 -5 718 -6
740 -25z m287 -1214 c114 -57 199 -86 321 -110 83 -17 87 -19 90 -46 5 -40
-26 -206 -54 -292 -70 -216 -199 -405 -374 -548 -68 -55 -72 -57 -97 -44 -48
26 -207 185 -265 266 -122 169 -195 363 -222 588 l-6 50 148 38 c109 28 174
51 252 91 58 29 106 53 107 54 0 1 45 -20 100 -47z"/>
<path d="M1091 2471 c-35 -9 -44 -53 -39 -189 3 -98 6 -116 23 -128 16 -12
119 -14 626 -14 563 0 608 1 628 18 21 16 22 24 19 157 -3 137 -3 140 -28 152
-19 10 -158 13 -615 12 -324 -1 -601 -4 -614 -8z m1149 -161 l0 -60 -540 0
-540 0 0 60 0 60 540 0 540 0 0 -60z"/>
<path d="M1073 2025 c-29 -21 -30 -59 -1 -79 19 -13 61 -16 260 -16 225 0 239
1 258 20 24 24 25 39 6 66 -13 18 -30 19 -258 22 -209 2 -246 1 -265 -13z"/>
<path d="M1073 1823 c-16 -6 -17 -65 -1 -81 8 -8 60 -12 169 -12 170 0 189 6
189 54 0 42 -15 46 -185 45 -88 0 -166 -3 -172 -6z"/>
<path d="M1532 1818 c-7 -7 -12 -24 -12 -38 0 -14 5 -31 12 -38 16 -16 749
-17 779 -2 22 12 26 59 7 78 -17 17 -769 17 -786 0z"/>
<path d="M1072 1618 c-18 -18 -15 -75 4 -82 9 -3 191 -6 405 -6 l389 0 12 25
c9 19 8 29 -6 50 l-16 25 -388 0 c-288 0 -391 -3 -400 -12z"/>
<path d="M1972 1618 c-18 -18 -15 -75 4 -82 31 -12 329 -7 342 6 19 19 15 66
-7 78 -29 15 -324 13 -339 -2z"/>
<path d="M1072 1418 c-18 -18 -15 -75 4 -82 9 -3 60 -6 114 -6 88 0 100 2 110
19 14 27 13 47 -6 65 -20 20 -203 23 -222 4z"/>
<path d="M1392 1418 c-7 -7 -12 -24 -12 -38 0 -49 5 -50 306 -50 155 0 289 3
298 6 19 7 22 64 4 82 -17 17 -579 17 -596 0z"/>
<path d="M1112 1220 c-63 -10 -79 -43 -41 -81 19 -19 29 -20 260 -17 262 3
262 3 257 63 -2 22 -9 31 -28 36 -33 9 -392 9 -448 -1z"/>
<path d="M1768 1223 c-83 -4 -97 -15 -84 -68 5 -20 14 -24 66 -30 33 -4 87 -4
121 0 49 6 62 11 68 28 8 22 4 54 -8 61 -13 8 -90 12 -163 9z"/>
<path d="M1083 1020 c-18 -7 -23 -17 -23 -45 0 -49 27 -57 168 -53 99 3 116 6
128 22 19 27 18 42 -6 66 -18 18 -33 20 -132 19 -62 0 -123 -4 -135 -9z"/>
<path d="M1471 1011 c-26 -26 -26 -46 -1 -71 19 -19 33 -20 248 -20 245 0 272
5 272 53 -1 51 -2 52 -259 55 -231 3 -241 2 -260 -17z"/>
<path d="M1795 816 c-22 -9 -57 -33 -77 -54 -123 -132 -30 -342 151 -342 111
0 192 79 199 193 3 51 -1 70 -20 107 -46 85 -162 129 -253 96z m148 -136 c57
-63 12 -159 -74 -160 -99 0 -139 129 -56 181 44 27 93 19 130 -21z"/>
<path d="M1073 813 c-16 -6 -17 -65 -1 -81 15 -15 430 -17 459 -2 22 12 26 59
7 78 -9 9 -73 12 -232 11 -122 0 -227 -3 -233 -6z"/>
<path d="M1090 602 c-37 -38 -49 -96 -25 -122 10 -11 26 -20 37 -20 19 0 52
28 60 50 3 10 12 7 35 -9 17 -13 51 -25 75 -28 33 -4 47 -11 54 -27 13 -31 69
-35 85 -5 14 26 6 123 -12 145 -15 18 -49 18 -73 -1 -29 -22 -48 -19 -92 15
-53 40 -105 41 -144 2z"/>
<path d="M2595 1322 c-81 -39 -115 -102 -115 -215 0 -73 -1 -75 -30 -87 -55
-23 -70 -63 -70 -187 0 -67 6 -128 15 -159 33 -112 150 -194 276 -194 125 0
214 53 266 158 26 54 28 65 28 189 l0 132 -42 43 c-40 42 -41 46 -45 118 -4
92 -28 143 -86 184 -55 39 -138 46 -197 18z m126 -98 c38 -19 59 -68 59 -134
l0 -50 -101 0 -101 0 4 69 c4 72 20 104 63 122 30 12 43 11 76 -7z m127 -306
c8 -8 12 -45 12 -102 0 -110 -22 -164 -82 -204 -55 -36 -139 -42 -194 -14 -80
41 -104 90 -104 215 0 59 4 97 12 105 17 17 339 17 356 0z"/>
<path d="M2602 788 c-18 -18 -15 -44 11 -99 22 -49 49 -68 81 -56 19 8 56 92
56 127 0 16 -7 30 -16 34 -28 11 -120 6 -132 -6z"/>
<path d="M2803 3085 c-65 -28 -63 -10 -63 -687 l0 -613 68 -120 c62 -110 70
-120 99 -123 38 -4 57 19 132 159 l51 96 0 501 c0 430 2 502 14 502 26 0 30
-23 27 -137 -3 -102 -1 -113 18 -132 24 -24 53 -27 70 -7 19 23 24 282 5 317
-17 34 -61 59 -104 59 -30 0 -30 1 -30 51 0 66 -23 113 -65 133 -42 20 -177
21 -222 1z m187 -750 l0 -465 -75 0 -75 0 0 465 0 465 75 0 75 0 0 -465z"/>
</g>
</svg>
