<?xml version="1.0" standalone="no"?>
<!DOCTYPE svg PUBLIC "-//W3C//DTD SVG 20010904//EN"
 "http://www.w3.org/TR/2001/REC-SVG-20010904/DTD/svg10.dtd">
<svg version="1.0" xmlns="http://www.w3.org/2000/svg"
 width="349.000000pt" height="330.000000pt" viewBox="0 0 349.000000 330.000000"
 preserveAspectRatio="xMidYMid meet">
<metadata>
Created by potrace 1.16, written by Peter Selinger 2001-2019
</metadata>
<g transform="translate(0.000000,330.000000) scale(0.100000,-0.100000)"
fill="#000000" stroke="none">
<path d="M1654 3170 c-357 -38 -658 -183 -915 -439 -227 -228 -360 -475 -419
-780 -97 -498 56 -1004 410 -1361 309 -311 692 -462 1135 -447 305 11 548 89
797 256 332 224 552 553 639 961 33 151 33 448 1 596 -44 206 -118 382 -233
555 -84 126 -282 324 -408 408 -300 199 -656 288 -1007 251z m387 -126 c287
-48 550 -184 759 -394 274 -273 414 -612 414 -995 -1 -387 -147 -730 -428
-1003 -203 -197 -442 -323 -723 -379 -121 -24 -385 -24 -506 0 -429 86 -794
357 -991 737 -164 315 -203 653 -116 995 135 533 580 944 1125 1039 111 20
349 20 466 0z"/>
<path d="M1552 2846 c-111 -21 -226 -81 -311 -161 -72 -69 -83 -92 -55 -119
27 -27 51 -18 121 46 105 95 234 148 363 148 66 0 191 -34 260 -71 83 -44 173
-138 216 -224 51 -104 64 -181 64 -392 0 -173 -1 -183 -19 -183 -18 0 -19 12
-23 218 -4 190 -7 224 -26 276 -104 284 -419 413 -692 284 -87 -42 -186 -141
-228 -228 -43 -91 -52 -157 -52 -367 0 -179 0 -183 -21 -183 -21 0 -21 2 -17
218 4 191 7 224 26 276 33 90 26 126 -24 126 -29 0 -50 -29 -76 -110 -18 -56
-21 -97 -26 -287 -4 -207 -6 -223 -23 -223 -46 0 -67 -105 -30 -151 16 -20 23
-22 47 -14 21 8 30 18 32 38 l3 27 610 0 609 0 0 -60 c0 -54 3 -62 24 -71 17
-8 29 -8 45 0 19 11 21 20 21 109 0 101 -7 122 -42 122 -17 0 -18 13 -18 158
0 292 -30 419 -130 554 -141 191 -392 288 -628 244z m279 -263 c114 -53 182
-132 219 -251 17 -54 20 -93 20 -253 l0 -189 -401 0 -401 0 4 213 3 212 32 67
c40 85 97 147 172 186 77 42 121 52 212 48 59 -2 89 -9 140 -33z"/>
<path d="M974 1625 c-14 -22 -16 -54 -11 -258 3 -181 8 -244 22 -287 45 -144
157 -258 297 -302 53 -16 96 -18 357 -18 312 0 321 1 321 45 0 43 -11 45 -287
45 -271 0 -337 7 -407 42 -65 33 -141 112 -172 181 l-29 62 -3 245 c-3 212 -5
247 -20 258 -25 19 -50 14 -68 -13z"/>
<path d="M1612 1587 c-26 -27 -29 -82 -7 -111 11 -14 15 -46 15 -109 0 -104 9
-127 50 -127 41 0 50 23 50 127 0 63 4 95 15 109 23 30 19 87 -8 112 -32 30
-87 29 -115 -1z"/>
<path d="M2169 1597 c-214 -61 -352 -301 -295 -514 40 -150 136 -256 273 -304
77 -26 209 -26 286 0 170 59 287 223 287 400 0 78 -8 100 -38 108 -46 11 -56
-6 -63 -103 -7 -105 -33 -168 -94 -230 -99 -98 -249 -127 -366 -71 -67 32
-142 108 -172 175 -33 73 -31 189 6 263 55 114 176 192 296 192 52 0 81 -7
139 -32 69 -31 75 -31 98 -16 13 8 24 22 24 29 0 26 -40 64 -92 86 -65 28
-217 37 -289 17z"/>
<path d="M2668 1528 c-8 -7 -96 -94 -196 -193 l-182 -179 -73 72 c-52 51 -80
72 -98 72 -32 0 -49 -17 -49 -48 0 -34 187 -222 221 -222 17 0 81 58 241 217
120 120 221 225 224 235 9 29 -14 58 -46 58 -16 0 -35 -6 -42 -12z"/>
</g>
</svg>
