<?xml version="1.0" standalone="no"?>
<!DOCTYPE svg PUBLIC "-//W3C//DTD SVG 20010904//EN"
 "http://www.w3.org/TR/2001/REC-SVG-20010904/DTD/svg10.dtd">
<svg version="1.0" xmlns="http://www.w3.org/2000/svg"
 width="530.000000pt" height="503.000000pt" viewBox="0 0 530.000000 503.000000"
 preserveAspectRatio="xMidYMid meet">
<metadata>
Created by potrace 1.16, written by Peter Selinger 2001-2019
</metadata>
<g transform="translate(0.000000,503.000000) scale(0.100000,-0.100000)"
fill="#000000" stroke="none">
<path d="M1750 4735 c0 -134 -22 -232 -77 -345 -82 -169 -233 -294 -418 -345
-43 -12 -117 -19 -258 -22 l-198 -5 4 -767 c4 -858 5 -877 82 -1168 173 -657
569 -1205 1127 -1559 201 -127 612 -314 691 -314 44 0 276 91 437 171 267 133
461 271 674 479 437 426 695 952 777 1585 7 58 13 352 16 831 l5 741 -204 6
c-227 5 -277 15 -392 74 -50 26 -97 62 -157 123 -143 143 -198 284 -199 503
l0 107 -955 0 -955 0 0 -95z m1635 -217 c28 -126 113 -314 188 -413 154 -205
399 -336 690 -371 l58 -6 -4 -612 c-4 -674 -9 -733 -76 -989 -163 -627 -620
-1189 -1201 -1482 -130 -66 -293 -127 -335 -128 -26 0 -81 18 -160 52 -650
281 -1077 723 -1310 1355 -43 116 -108 366 -126 481 -14 95 -25 623 -21 1031
l3 291 105 17 c429 70 699 316 819 749 l16 57 674 0 673 0 7 -32z"/>
<path d="M2508 3596 c-431 -77 -779 -418 -873 -856 -97 -456 132 -949 545
-1174 236 -128 538 -164 804 -96 375 98 670 394 774 778 23 87 26 116 26 272
1 140 -3 190 -18 250 -23 93 -68 208 -107 277 -18 31 -27 58 -23 65 4 7 61 64
126 127 65 62 118 118 118 125 0 6 -45 56 -101 111 l-101 100 -118 -124 -119
-123 -43 35 c-124 100 -284 181 -433 219 -104 26 -346 33 -457 14z m417 -301
c102 -30 205 -82 265 -134 l41 -36 -265 -265 -266 -265 -150 150 -150 150 -95
-95 c-52 -52 -95 -99 -95 -105 0 -6 113 -123 250 -260 l250 -250 353 353 354
353 26 -58 c129 -288 64 -631 -166 -871 -151 -157 -352 -242 -572 -242 -351 0
-649 218 -767 560 -31 90 -32 103 -33 240 0 125 3 155 23 220 138 438 571 679
997 555z"/>
</g>
</svg>
