<?xml version="1.0" standalone="no"?>
<!DOCTYPE svg PUBLIC "-//W3C//DTD SVG 20010904//EN"
 "http://www.w3.org/TR/2001/REC-SVG-20010904/DTD/svg10.dtd">
<svg version="1.0" xmlns="http://www.w3.org/2000/svg"
 width="349.000000pt" height="330.000000pt" viewBox="0 0 349.000000 330.000000"
 preserveAspectRatio="xMidYMid meet">
<metadata>
Created by potrace 1.16, written by Peter Selinger 2001-2019
</metadata>
<g transform="translate(0.000000,330.000000) scale(0.100000,-0.100000)"
fill="#000000" stroke="none">
<path d="M565 2936 c-39 -17 -64 -46 -80 -93 l-13 -38 -84 -5 c-51 -4 -96 -13
-116 -24 -38 -20 -62 -67 -62 -121 0 -20 29 -294 65 -608 35 -315 80 -716 100
-892 39 -349 46 -375 106 -410 32 -19 55 -20 331 -23 l298 -3 56 -87 c96 -148
226 -259 372 -318 109 -44 173 -56 313 -61 164 -6 256 13 389 79 95 48 109 64
94 105 -13 39 -42 40 -106 4 -301 -169 -701 -93 -922 175 -63 77 -127 199
-152 294 -25 89 -25 271 0 360 85 315 356 538 676 557 326 19 640 -192 746
-502 36 -106 44 -264 20 -386 -20 -100 -76 -221 -140 -304 -60 -77 -61 -135
-1 -135 27 0 48 23 120 130 l58 85 246 5 c343 7 344 8 355 253 12 248 46 1288
46 1393 0 88 -3 105 -23 135 -33 51 -78 69 -168 69 l-76 0 -6 65 c-12 127 -46
156 -187 163 -105 5 -130 -5 -130 -52 0 -36 18 -44 107 -48 45 -1 87 -8 92
-13 5 -6 13 -34 17 -63 l7 -52 -614 2 -614 3 -27 55 c-15 30 -28 58 -28 63 0
4 208 7 463 7 347 0 466 3 475 12 7 7 12 25 12 40 0 21 -6 31 -26 38 -15 6
-213 10 -493 10 -433 0 -469 1 -483 18 -9 9 -18 26 -22 38 -9 29 -55 69 -95
83 -52 17 -856 15 -896 -3z m881 -108 c7 -7 36 -65 64 -128 84 -188 91 -200
121 -215 24 -13 136 -15 767 -15 708 0 741 -1 763 -19 l23 -18 -27 -783 c-15
-430 -32 -790 -37 -800 -12 -22 -85 -30 -287 -30 -142 0 -154 1 -149 18 31
106 32 395 1 507 -9 33 -35 98 -58 145 -34 70 -57 101 -136 180 -115 113 -216
177 -363 228 -88 30 -120 36 -218 39 -173 7 -304 -27 -465 -121 -106 -62 -269
-230 -322 -331 -69 -133 -88 -215 -87 -385 1 -92 6 -170 16 -212 l16 -68 -232
0 c-259 0 -302 5 -317 31 -6 12 -3 209 10 586 11 313 25 723 32 913 14 445 17
470 49 488 36 19 816 11 836 -10z m-979 -265 c-4 -76 -11 -304 -18 -508 -6
-203 -14 -383 -18 -398 -3 -16 -30 184 -64 486 -32 283 -55 521 -51 530 7 20
24 24 98 26 l59 1 -6 -137z"/>
<path d="M1769 1737 c-127 -48 -203 -146 -215 -279 -8 -98 -12 -108 -37 -108
-32 0 -84 -35 -107 -72 -19 -31 -20 -51 -20 -311 0 -313 3 -328 69 -369 36
-23 39 -23 406 -23 351 0 372 1 404 20 19 11 43 33 55 48 20 27 21 42 24 300
2 170 -1 285 -7 308 -13 44 -45 75 -96 92 l-40 14 -11 89 c-13 103 -37 158
-95 213 -60 59 -120 84 -214 88 -51 2 -93 -2 -116 -10z m215 -121 c23 -13 56
-44 72 -67 24 -35 29 -54 32 -115 l4 -74 -35 0 c-34 0 -34 0 -41 56 -12 103
-60 154 -144 154 -86 0 -142 -63 -142 -160 l0 -50 -40 0 -40 0 0 53 c0 97 63
190 152 224 48 18 131 9 182 -21z m250 -388 c13 -19 16 -62 16 -269 0 -237 -1
-247 -21 -265 -20 -18 -43 -19 -333 -22 -171 -2 -325 0 -343 3 -63 12 -63 11
-63 287 0 220 2 254 17 270 15 17 40 18 364 18 l348 0 15 -22z"/>
<path d="M1789 1168 c-70 -40 -96 -124 -64 -201 8 -20 15 -60 15 -89 0 -67 26
-117 71 -140 42 -22 71 -23 115 -2 44 21 64 60 70 133 3 31 12 79 21 107 20
62 12 112 -24 154 -52 63 -136 78 -204 38z m123 -108 c18 -25 18 -26 -2 -65
-13 -26 -20 -59 -20 -96 0 -41 -4 -58 -15 -62 -21 -9 -27 7 -29 77 -1 39 -8
71 -19 86 -22 32 -21 41 4 69 26 27 56 24 81 -9z"/>
</g>
</svg>
