<svg id="Capa_1" data-name="Capa 1" xmlns="http://www.w3.org/2000/svg" viewBox="0 0 514.96 477.27"><defs><style>.cls-1{fill:#fff;}.cls-2{fill:#861912;}</style></defs><path class="cls-1" d="M272.57,273.17a68.85,68.85,0,0,0,32.53-20.54H255.51v-18H259q27.53,0,55.07,0c1.79,0,3.11-.2,3.61-2.21,1.42-5.81,3.9-11.56,4.21-17.42.76-14.61.55-29.27.72-43.91a3.31,3.31,0,0,0-.37-1H216.66a49.41,49.41,0,0,1-25.27-6.58c-2.37-1.38-4.61-3-7.12-4.62,0,.84-.09,1.33-.09,1.82,0,15.45-.07,30.91,0,46.36a69.72,69.72,0,0,0,1.06,11.06A69,69,0,0,0,272.57,273.17Z"/><path class="cls-1" d="M148.2,199.7h17.68V170.28H148.2Z"/><path class="cls-1" d="M358.58,170.24H340.86v29.51h17.72Z"/><path class="cls-1" d="M349,218.49h-8.71l-3.66,15.89H349Z"/><path class="cls-1" d="M185.12,126.79c2.81,14.09,15.52,25.17,32,25,34.1-.24,68.21-.07,102.31-.08,1,0,1.95-.09,3.22-.15,0-7.27.08-14.37,0-21.47-.24-19.67-15.91-32.82-32.74-32.36-13.23.36-26.48.07-39.72.08-1.05,0-2.1.11-3.33.17v26L184.18,97.05c0,5.47-.11,10,0,14.47C184.36,116.62,184.14,121.83,185.12,126.79Z"/><path class="cls-1" d="M225.86,289.67c-1.41,13.15,1.53,24.14,13.07,31.13,9.88,6,20.1,5.81,29.78-.51,11-7.13,13.64-17.9,12.26-30.57A88.29,88.29,0,0,1,225.86,289.67Z"/><path class="cls-1" d="M360.7,322.05c-13.22-7.38-27.56-11.74-42-15.77-6.34-1.77-12.72-3.4-19.12-5.1-3.6,27.81-26.32,42.23-46,42a45.71,45.71,0,0,1-28.68-9.92c-10.22-8.11-15.92-18.84-17.43-31.87a19.47,19.47,0,0,0-2.21.32c-9.25,2.54-18.55,4.95-27.74,7.69-12.2,3.64-24.12,8-35,14.87C128,333.47,119.65,346.57,118,364H388.8a12.2,12.2,0,0,0,0-1.38C386.52,344.19,376.69,331,360.7,322.05Z"/><path class="cls-2" d="M361.84,302.13c-17-8-35.15-12.61-53.22-17.44-2.31-.62-4.65-1.17-6.95-1.84a10.71,10.71,0,0,1-2-1.09,8.44,8.44,0,0,1,1.57-1.94c8.88-5.88,16.81-12.88,22.61-21.78,2.87-4.39,6-5.64,10.93-5.45,9.72.38,19.46.11,29.2.11h3.48V218.45h9.1V151.87H340.71c0-1.32,0-2.38,0-3.44-.21-9,.27-18.11-.76-27-2.5-21.6-22.65-40.63-44.37-41.4s-43.53-.37-65.3-.47a10.19,10.19,0,0,0-1.43.23V96.4l-15.48-6.65q-10.76-4.62-21.51-9.25a8,8,0,0,0-2.83-.92c-7.5-.08-15,0-22.8,0v72.13h-36v66.52h36.07c1.6,5.92,2.8,11.6,4.66,17,6.34,18.55,17.88,33.18,34.09,44.18a14.37,14.37,0,0,1,2.15,2.25,15.65,15.65,0,0,1-2.75,1.43c-16.46,5-33.09,9.4-49.35,14.92-14.05,4.77-26.81,12.14-37.2,23.09-10.69,11.27-16.09,24.9-17.94,40.13-.14,1.17-.41,2.33-.62,3.49v18.07c1.4-.08,2.79-.22,4.19-.22H407.42c.28-9.17.3-18-1.34-26.84C401.22,329.68,385,313,361.84,302.13Zm-21-131.89h17.72v29.51H340.86Zm-.59,48.25H349v15.89H336.61ZM165.88,199.7H148.2V170.28h17.68Zm18.3-102.65,62.67,27V98c1.23-.06,2.28-.17,3.33-.17,13.24,0,26.49.28,39.72-.08,16.83-.46,32.5,12.69,32.74,32.36.09,7.1,0,14.2,0,21.47-1.27.06-2.24.15-3.22.15-34.1,0-68.21-.16-102.31.08-16.48.12-29.19-11-32-25-1-5-.76-10.17-.91-15.27C184.07,107,184.18,102.52,184.18,97.05Zm1.11,121.1a69.72,69.72,0,0,1-1.06-11.06c-.12-15.45,0-30.91,0-46.36,0-.49,0-1,.09-1.82,2.51,1.63,4.75,3.24,7.12,4.62a49.41,49.41,0,0,0,25.27,6.58H322.24a3.31,3.31,0,0,1,.37,1c-.17,14.64,0,29.3-.72,43.91-.31,5.86-2.79,11.61-4.21,17.42-.5,2-1.82,2.22-3.61,2.21q-27.54-.07-55.07,0h-3.49v18H305.1a69.07,69.07,0,0,1-119.81-34.48Zm83.42,102.14c-9.68,6.32-19.9,6.5-29.78.51-11.54-7-14.48-18-13.07-31.13a88.29,88.29,0,0,0,55.11.05C282.35,302.39,279.66,313.16,268.71,320.29ZM388.8,364H118c1.68-17.44,10-30.54,24.57-39.76,10.84-6.87,22.76-11.23,35-14.87,9.19-2.74,18.49-5.15,27.74-7.69a19.47,19.47,0,0,1,2.21-.32c1.51,13,7.21,23.76,17.43,31.87a45.71,45.71,0,0,0,28.68,9.92c19.67.25,42.39-14.17,46-42,6.4,1.7,12.78,3.33,19.12,5.1,14.47,4,28.81,8.39,42,15.77,16,8.93,25.82,22.14,28.09,40.58A12.2,12.2,0,0,1,388.8,364Z"/></svg>