<svg id="Capa_1" data-name="Capa 1" xmlns="http://www.w3.org/2000/svg" viewBox="0 0 514.96 477.27"><defs><style>.cls-1{fill:#fff;}.cls-2{fill:#861912;}</style></defs><path class="cls-1" d="M214.64,165.91c-.46,2.39-.56,4.85-.84,7.48a18.76,18.76,0,0,0,.26,1.87,10.79,10.79,0,0,0,7.32,8.18c9.62,3.6,18.07,8.34,23.58,17.84,6.52,11.26,8.32,11.62,21,7.46,8.16-2.68,16.09-3,24.16,0a53.44,53.44,0,0,0,7.34,2.1c4.15.91,7.53-.56,10.16-3.8a19.45,19.45,0,0,0,2.14-3.18,38.1,38.1,0,0,1,23.64-19.76,10.21,10.21,0,0,0,1.27-.56c6.3-2.8,8.73-6.83,7.33-13.64-2.23-10.85-.9-20.81,4.83-30.5,5-8.42,4.27-11.88-3.24-18.11C335.43,114.54,330.46,106.34,329,96a29.43,29.43,0,0,0-.7-3.06c-1.47-5.8-5-8.54-10.91-8.83-4.29-.2-8.58-.47-12.85-1-7.2-.83-12.34-5.63-17.81-9.69-7.06-5.23-10.64-5.63-17.31.19-8.65,7.55-18.48,10.64-29.74,10.52-7.36-.07-10.46,2.61-12,9.95-2,9.57-4.94,18.34-12.81,25.2-10.62,9.24-10.64,10.52-4,23.09A34.59,34.59,0,0,1,214.64,165.91ZM278.06,89a51.35,51.35,0,1,1-51.17,51.23A51.43,51.43,0,0,1,278.06,89Z"/><path class="cls-1" d="M278.08,180.36a40.05,40.05,0,1,0-39.88-40A39.92,39.92,0,0,0,278.08,180.36ZM249.62,137.7c2.52-2.38,5.56-2.13,8.58.9,3.19,3.2,6.27,6.52,9.56,10,7.48-6.78,14.62-13.25,21.75-19.73,2.93-2.66,5.81-5.36,8.76-8s6.46-2.59,8.66-.08,1.91,5.73-.94,8.35q-16.83,15.44-33.79,30.74c-3.23,2.91-6,2.71-9.16-.41q-6.46-6.36-12.81-12.85C247.32,143.63,247.12,140.05,249.62,137.7Z"/><path class="cls-1" d="M237.44,210.65c-2.38-2.81-4.18-6.12-6.56-9.69L215,235c5-.86,9.27-1.57,13.58-2.38,5.12-1,6.68-.3,9.36,4.3,2.24,3.84,4.46,7.69,7,12l12-25.79c-3.58-1.15-7.39-1.57-10.21-3.46C243.21,217.36,240.25,214,237.44,210.65Z"/><path class="cls-1" d="M327.72,198.32c-2.37,3.2-5,6.26-7.07,9.65-4.15,6.83-9,12.63-17.6,14.2l8,18.49c2.56-4.12,4.83-7.75,7.08-11.4,3.18-5.12,4.36-5.6,10.28-4.33,4.1.88,8.21,1.68,12.93,2.65L329,198.83Z"/><path class="cls-1" d="M372.2,284c-1.95,0-4.09-.15-5.84.54-6.44,2.54-13.06,4.84-19.07,8.22-18.41,10.37-36.54,21.25-54.85,31.8a39.84,39.84,0,0,1-24.79,5.09c-16.37-1.76-31.83-7.25-47.61-11.43a5.24,5.24,0,0,1-4.22-5c-.34-4.45,3.17-7,8-5.74,11.42,3,22.8,6.24,34.26,9.12,6.93,1.75,12.23-1.35,13.54-7.41,1.21-5.58-2.55-10.91-9.13-12.24-17.11-3.46-33.39-9.54-49.79-15.3a56.2,56.2,0,0,0-12.38-3.18c-7.46-.81-14.13,2.26-20.43,5.84-14.14,8-28.17,16.24-42.23,24.4a13.14,13.14,0,0,0-1.62,1.37l26.83,47.5c3.08-1.78,5.88-3.2,8.47-4.93,2.85-1.9,5.61-2,8.9-1.12,23.13,6.3,46.35,12.29,69.45,18.7,10.53,2.91,20.05,1.58,29.29-4.2,20.58-12.89,41.31-25.54,62-38.29,12.36-7.63,24.74-15.21,37.07-22.88,4.32-2.68,6-8.18,4.49-13.59C381.18,286.84,377.37,284.06,372.2,284Z"/><path class="cls-1" d="M162.2,379.63q-22.41-39.74-44.84-79.47c-1.32-2.34-2.89-2.69-5.14-1.38-4.21,2.46-8.47,4.81-12.7,7.23-3.71,2.11-3.93,2.86-1.84,6.57Q106.83,328.81,116,345q12.86,22.74,25.71,45.49c2.18,3.85,2.61,4,6.51,1.77,4.24-2.38,8.45-4.84,12.72-7.19a32.84,32.84,0,0,1,3.55-1.5l-1.21-1.45A24.55,24.55,0,0,0,162.2,379.63Zm-50.65-59.86a5.37,5.37,0,0,1-5.19-5.79,5.49,5.49,0,0,1,5.61-5.43,5.57,5.57,0,0,1,5.56,5.85A5.44,5.44,0,0,1,111.55,319.77Z"/><path class="cls-2" d="M368.83,272.66c-9.26.8-17.44,4.52-25.32,9.09-18.37,10.67-36.69,21.42-55.07,32.09-2.23,1.29-4.64,2.27-7.66,3.73.68-2.11,1.09-3.28,1.43-4.46,3.31-11.42-3.93-24.44-15.53-26.8-17-3.46-33.22-9.33-49.51-15.05a78.44,78.44,0,0,0-14-3.88c-10.62-1.61-20.16,2.15-29.17,7.26-13.73,7.79-27.35,15.79-41,23.69-.86.49-1.78.88-2.86,1.41-1.09-1.94-2-3.67-3-5.36-4.56-7.83-12.29-10-20.24-5.55q-6.85,3.81-13.64,7.72c-8.57,4.92-10.61,12.31-5.77,20.95,5.12,9.12,10.29,18.21,15.43,27.31q14.73,26.12,29.48,52.21c4.57,8.06,12.34,10.21,20.46,5.69,5-2.76,10-5.49,14.82-8.45,6.83-4.15,8.86-11.67,5.21-18.76-1.32-2.58-2.8-5.08-4.39-7.94a25.94,25.94,0,0,0,3.18-1.89c3.57-2.91,7.19-2.8,11.6-1.56,21.19,5.94,42.53,11.33,63.74,17.21,13.59,3.77,26,1.82,38-5.61,32.64-20.29,65.39-40.39,98.1-60.58a23.16,23.16,0,0,0,10-27.81C389.76,277.41,380.19,271.68,368.83,272.66ZM161,385.1c-4.27,2.35-8.48,4.81-12.72,7.19-3.9,2.18-4.33,2.08-6.51-1.77Q128.85,367.78,116,345q-9.17-16.23-18.33-32.45c-2.09-3.71-1.87-4.46,1.84-6.57,4.23-2.42,8.49-4.77,12.7-7.23,2.25-1.31,3.82-1,5.14,1.38q22.39,39.75,44.84,79.47a24.55,24.55,0,0,1,1.09,2.52l1.21,1.45A32.84,32.84,0,0,0,161,385.1Zm217-80.18c-12.33,7.67-24.71,15.25-37.07,22.88-20.66,12.75-41.39,25.4-62,38.29-9.24,5.78-18.76,7.11-29.29,4.2-23.1-6.41-46.32-12.4-69.45-18.7-3.29-.9-6.05-.78-8.9,1.12-2.59,1.73-5.39,3.15-8.47,4.93L136,310.14a13.14,13.14,0,0,1,1.62-1.37c14.06-8.16,28.09-16.38,42.23-24.4,6.3-3.58,13-6.65,20.43-5.84a56.2,56.2,0,0,1,12.38,3.18c16.4,5.76,32.68,11.84,49.79,15.3,6.58,1.33,10.34,6.66,9.13,12.24-1.31,6.06-6.61,9.16-13.54,7.41-11.46-2.88-22.84-6.08-34.26-9.12-4.78-1.27-8.29,1.29-8,5.74a5.24,5.24,0,0,0,4.22,5c15.78,4.18,31.24,9.67,47.61,11.43a39.84,39.84,0,0,0,24.79-5.09c18.31-10.55,36.44-21.43,54.85-31.8,6-3.38,12.63-5.68,19.07-8.22,1.75-.69,3.89-.56,5.84-.54,5.17.05,9,2.83,10.26,7.32C384,296.74,382.29,302.24,378,304.92Z"/><path class="cls-2" d="M203,168.6c-2.18,11.49,3.21,20.65,13.9,25.26,1.27.54,2.52,1.13,3.94,1.78-3.13,6.76-6.18,13.4-9.26,20-3.62,7.79-7.44,15.5-10.76,23.42a9.29,9.29,0,0,0,.21,6.8c1.09,2.31,3.73,2.57,6.43,2,6.36-1.27,12.81-2.14,19.18-3.4,1.83-.37,2.71,0,3.59,1.59,2.88,5.18,5.95,10.25,8.88,15.41,1.52,2.68,3,5.51,6.59,5.4,3.83-.12,5-3.24,6.35-6.13,6.09-13.18,12.17-26.36,18.4-39.48a6.9,6.9,0,0,1,3.37-2.89c4.7-2,9.15,0,13.5,1.48a7,7,0,0,1,3.81,3.39c4.52,10,8.84,20.21,13.12,30.37,1.07,2.53,2.5,4.62,5.34,4.92,3.05.31,4.82-1.69,6.29-4.13,3.25-5.37,6.67-10.64,9.88-16,1-1.7,2.05-2.1,3.95-1.67,6.33,1.42,12.68,2.79,19.07,3.92,6.07,1.08,9.15-2.84,6.84-8.51-1.76-4.3-3.65-8.55-5.48-12.82-3.6-8.39-7.19-16.79-10.85-25.32,11.33-5.27,16.05-14.19,13.8-26-1.76-9.17-.36-17.23,4.6-24.89a9.16,9.16,0,0,0,.5-.92c5.05-10.2,3.71-20.22-5-27.46-7.78-6.46-12.59-14-13.75-24a14.08,14.08,0,0,0-.6-2.36c-2.78-9-10-15.31-19.36-15.37C308.64,73,299.52,70,291.15,62.81c-7.88-6.74-18.43-6.63-26.31.11-8,6.87-16.79,9.87-27.28,10.07-11.42.22-18.72,6.92-20.86,18.31-1.67,8.9-5.17,16.19-12.27,22.22-10.69,9.08-12.28,18.11-5.42,30.37A34.7,34.7,0,0,1,203,168.6ZM245,249c-2.53-4.35-4.75-8.2-7-12-2.68-4.6-4.24-5.27-9.36-4.3-4.31.81-8.63,1.52-13.58,2.38L230.88,201c2.38,3.57,4.18,6.88,6.56,9.69,2.81,3.31,5.77,6.71,9.31,9.1,2.82,1.89,6.63,2.31,10.21,3.46Zm96.36-21.42c-4.72-1-8.83-1.77-12.93-2.65-5.92-1.27-7.1-.79-10.28,4.33-2.25,3.65-4.52,7.28-7.08,11.4l-8-18.49c8.6-1.57,13.45-7.37,17.6-14.2,2.06-3.39,4.7-6.45,7.07-9.65l1.25.51ZM214.84,119.27c7.87-6.86,10.79-15.63,12.81-25.2,1.56-7.34,4.66-10,12-9.95,11.26.12,21.09-3,29.74-10.52,6.67-5.82,10.25-5.42,17.31-.19,5.47,4.06,10.61,8.86,17.81,9.69,4.27.49,8.56.76,12.85,1,6,.29,9.44,3,10.91,8.83A29.43,29.43,0,0,1,329,96c1.47,10.39,6.44,18.59,14.55,25.32,7.51,6.23,8.22,9.69,3.24,18.11-5.73,9.69-7.06,19.65-4.83,30.5,1.4,6.81-1,10.84-7.33,13.64a10.21,10.21,0,0,1-1.27.56,38.1,38.1,0,0,0-23.64,19.76,19.45,19.45,0,0,1-2.14,3.18c-2.63,3.24-6,4.71-10.16,3.8a53.44,53.44,0,0,1-7.34-2.1c-8.07-3-16-2.66-24.16,0-12.63,4.16-14.43,3.8-21-7.46-5.51-9.5-14-14.24-23.58-17.84a10.79,10.79,0,0,1-7.32-8.18,18.76,18.76,0,0,1-.26-1.87c.28-2.63.38-5.09.84-7.48a34.59,34.59,0,0,0-3.77-23.55C204.2,129.79,204.22,128.51,214.84,119.27Z"/><path class="cls-2" d="M112,308.55a5.49,5.49,0,0,0-5.61,5.43,5.37,5.37,0,0,0,5.19,5.79,5.44,5.44,0,0,0,6-5.37A5.57,5.57,0,0,0,112,308.55Z"/><path class="cls-2" d="M277.93,191.73a51.35,51.35,0,1,0-51-51.46A51.64,51.64,0,0,0,277.93,191.73Zm.14-91.47a40.05,40.05,0,1,1-39.87,40.07A40,40,0,0,1,278.07,100.26Z"/><path class="cls-2" d="M263,159.44c3.17,3.12,5.93,3.32,9.16.41q17-15.3,33.79-30.74c2.85-2.62,3.1-5.88.94-8.35s-5.74-2.51-8.66.08-5.83,5.33-8.76,8c-7.13,6.48-14.27,12.95-21.75,19.73-3.29-3.44-6.37-6.76-9.56-10-3-3-6.06-3.28-8.58-.9s-2.3,5.93.61,8.89Q256.58,153.07,263,159.44Z"/></svg>