<svg id="Capa_1" data-name="Capa 1" xmlns="http://www.w3.org/2000/svg" viewBox="0 0 514.96 477.27"><defs><style>.cls-1{fill:#fff;}.cls-2{fill:#861912;stroke:#861912;stroke-miterlimit:10;}</style></defs><path class="cls-1" d="M306.13,157.61a81.91,81.91,0,0,0-1.27-14.68c-6.4-32.86-37.66-54.56-70.19-49-31.49,5.42-52,30.64-52,62.67q0,23,0,46v3.53H306.19C306.19,189.75,306.28,173.68,306.13,157.61Z"/><path class="cls-1" d="M265.37,20.72C145,20.72,47.46,118.28,47.46,238.63S145,456.55,265.37,456.55,483.29,359,483.29,238.63,385.72,20.72,265.37,20.72ZM141.53,210.91c.16-2.83,2-4.42,4.84-4.6,1.68-.1,3.37,0,5.39,0v-3.73q0-24.6,0-49.21a87.7,87.7,0,0,1,7.56-35.2c1.68-3.86,4.17-5.2,7.18-3.93,3.18,1.34,4.08,4.19,2.37,8.09A85.25,85.25,0,0,0,162,157q0,22.68,0,45.36v3.71h10.3v-3.48c0-16.3,0-32.59,0-48.89C172.45,120,197.68,90,230.88,84c40.4-7.26,77.78,18.81,84.75,59.2a61.45,61.45,0,0,1,.8,10.23c.09,16.3,0,32.6,0,48.89v3.73h10.16c.05-1.05.14-2.09.14-3.13q0-23.31,0-46.64c-.06-40.92-26.91-74.49-67-82.16-29.83-5.7-55.35,3.63-76.26,25.59-.51.55-1,1.14-1.49,1.69-2.37,2.46-5.5,2.83-7.72.92a4.85,4.85,0,0,1-.14-7.64c6.21-5.87,12.16-12.26,19.22-16.94,55.4-36.76,129.71-5.34,142.2,60A87.36,87.36,0,0,1,337,153c.18,16.51.07,33,.07,49.53v3.73c1.91,0,3.5,0,5.08,0,3.12.12,5.14,1.91,5.18,4.94q.15,10.44,0,20.9a5.11,5.11,0,0,1-10.22,0c-.09-5,0-10.06,0-15.31H151.74c0,1.93.1,3.64,0,5.34a5,5,0,0,1-5.1,4.72,4.88,4.88,0,0,1-5.11-4.69C141.37,218.42,141.32,214.65,141.53,210.91Zm174.94,21a5.14,5.14,0,1,1-5.13-5A5.06,5.06,0,0,1,316.47,231.88Zm-66.92,61.05c0,3.81-1.92,6-5.14,6s-5.11-2.17-5.14-6,0-7.93,0-11.89v-7.4c0-3.67.16-7-3.14-10.09-3.81-3.58-2.52-10.18,1.63-13.72a10.25,10.25,0,0,1,14.2.89c3.72,4,3.94,10.19,0,13.89-2.06,1.94-2.48,3.89-2.44,6.46C249.63,278.35,249.57,285.64,249.55,292.93ZM177.5,237.15a5.13,5.13,0,1,1,5.13-5.29A5.05,5.05,0,0,1,177.5,237.15Zm5.13,87.61a5.14,5.14,0,1,1-4.89-5.22A5.09,5.09,0,0,1,182.63,324.76ZM280.19,371c-12.87,0-25.73,0-38.6,0-11.36,0-22.73,0-34.09,0-32.83-.09-61.35-25.35-65.41-57.94a74.63,74.63,0,0,1-.6-9q-.08-28,0-56c0-3.6,1.9-5.72,5-5.79,3.29-.07,5.21,2.06,5.27,5.85,0,.75,0,1.5,0,2.25,0,17.8-.24,35.6.07,53.39.36,21.05,9.56,37.41,27.45,48.65,9.21,5.79,19.44,8.21,30.25,8.22q34.26,0,68.51,0c.75,0,1.5,0,2.25,0,3.26.13,5.33,2.16,5.3,5.18S283.49,371,280.19,371Zm69.62-1.35c-34.27,7-65.82-13.81-73.46-48s17.14-69.18,51.76-73.61c14.8-1.9,28.56.81,41.21,8.63a8.19,8.19,0,0,1,3.56,5.18c.48,4.19-4.3,6.43-8.32,4a57.53,57.53,0,0,0-18.41-7.19C318.59,253,290,273.62,286.07,301.42a52.07,52.07,0,0,0,41.35,58.35c26.87,5.24,54.91-13.33,59.82-40.31.68-3.78.9-7.64,1.33-11.46l-.32,0c-.17-2.35-.4-4.7-.5-7.06a5.2,5.2,0,0,1,4.79-5.75,5.43,5.43,0,0,1,5.55,4.79C402.93,332.09,382,363,349.81,369.61Zm53.52-104.26a14.5,14.5,0,0,1-2.48,2.91l-58.42,58.42c-4.39,4.39-6.33,4.38-10.7,0Q320,315,308.32,303.28c-2.81-2.83-2.87-6.26-.27-8.38,2.29-1.85,5.1-1.5,7.71,1.08q9.92,9.86,19.79,19.77c.44.43.92.83,1.53,1.37.94-.89,1.8-1.66,2.62-2.47q26.94-26.94,53.89-53.87a13.49,13.49,0,0,1,2.64-2.32,4.82,4.82,0,0,1,6.19.74A4.75,4.75,0,0,1,403.33,265.35Z"/><path class="cls-2" d="M146.62,226.86a5,5,0,0,0,5.1-4.72c.12-1.7,0-3.41,0-5.34H337.08c0,5.25-.07,10.28,0,15.31a5.11,5.11,0,0,0,10.22,0q.14-10.45,0-20.9c0-3-2.06-4.82-5.18-4.94-1.58-.06-3.17,0-5.08,0v-3.73c0-16.51.11-33-.07-49.53a87.36,87.36,0,0,0-1.46-15.32c-12.49-65.3-86.8-96.72-142.2-60-7.06,4.68-13,11.07-19.22,16.94a4.85,4.85,0,0,0,.14,7.64c2.22,1.91,5.35,1.54,7.72-.92.52-.55,1-1.14,1.49-1.69,20.91-22,46.43-31.29,76.26-25.59,40.14,7.67,67,41.24,67,82.16q0,23.33,0,46.64c0,1-.09,2.08-.14,3.13H316.47v-3.73c0-16.29,0-32.59,0-48.89a61.45,61.45,0,0,0-.8-10.23c-7-40.39-44.35-66.46-84.75-59.2-33.2,6-58.43,36-58.52,69.69,0,16.3,0,32.59,0,48.89v3.48h-10.3v-3.71q0-22.68,0-45.36a85.25,85.25,0,0,1,6.84-34.69c1.71-3.9.81-6.75-2.37-8.09-3-1.27-5.5.07-7.18,3.93a87.7,87.7,0,0,0-7.56,35.2q0,24.6,0,49.21v3.73c-2,0-3.71-.08-5.39,0-2.86.18-4.68,1.77-4.84,4.6-.21,3.74-.16,7.51,0,11.26A4.88,4.88,0,0,0,146.62,226.86Zm36-24.22q0-23,0-46c0-32,20.54-57.25,52-62.67,32.53-5.6,63.79,16.1,70.19,49a81.91,81.91,0,0,1,1.27,14.68c.15,16.07.06,32.14.06,48.56H182.64Z"/><path class="cls-2" d="M392.54,295.16a5.2,5.2,0,0,0-4.79,5.75c.1,2.36.33,4.71.5,7.06l.32,0c-.43,3.82-.65,7.68-1.33,11.46-4.91,27-32.95,45.55-59.82,40.31a52.07,52.07,0,0,1-41.35-58.35c3.93-27.8,32.52-48.44,60.08-42.75a57.53,57.53,0,0,1,18.41,7.19c4,2.42,8.8.18,8.32-4a8.19,8.19,0,0,0-3.56-5.18c-12.65-7.82-26.41-10.53-41.21-8.63-34.62,4.43-59.39,39.55-51.76,73.61s39.19,55,73.46,48C382,363,402.93,332.09,398.09,300A5.43,5.43,0,0,0,392.54,295.16Z"/><path class="cls-2" d="M280.28,360.7c-.75,0-1.5,0-2.25,0q-34.24,0-68.51,0c-10.81,0-21-2.43-30.25-8.22-17.89-11.24-27.09-27.6-27.45-48.65-.31-17.79-.07-35.59-.07-53.39,0-.75,0-1.5,0-2.25-.06-3.79-2-5.92-5.27-5.85-3.11.07-5,2.19-5,5.79q0,28,0,56a74.63,74.63,0,0,0,.6,9c4.06,32.59,32.58,57.85,65.41,57.94,11.36,0,22.73,0,34.09,0,12.87,0,25.73,0,38.6,0,3.3,0,5.37-2.07,5.39-5.08S283.54,360.83,280.28,360.7Z"/><path class="cls-2" d="M396.23,258.46a13.49,13.49,0,0,0-2.64,2.32q-27,26.93-53.89,53.87c-.82.81-1.68,1.58-2.62,2.47-.61-.54-1.09-.94-1.53-1.37q-9.9-9.88-19.79-19.77c-2.61-2.58-5.42-2.93-7.71-1.08-2.6,2.12-2.54,5.55.27,8.38Q320,315,331.73,326.7c4.37,4.36,6.31,4.37,10.7,0l58.42-58.42a14.5,14.5,0,0,0,2.48-2.91,4.75,4.75,0,0,0-.91-6.15A4.82,4.82,0,0,0,396.23,258.46Z"/><path class="cls-2" d="M252,250.72a10.25,10.25,0,0,0-14.2-.89c-4.15,3.54-5.44,10.14-1.63,13.72,3.3,3.12,3.14,6.42,3.14,10.09V281c0,4,0,7.93,0,11.89s1.92,6,5.14,6,5.13-2.17,5.14-6c0-7.29.08-14.58,0-21.86,0-2.57.38-4.52,2.44-6.46C255.9,260.91,255.68,254.7,252,250.72Z"/><path class="cls-2" d="M177.48,226.9a5.13,5.13,0,1,0,5.15,5A5.06,5.06,0,0,0,177.48,226.9Z"/><path class="cls-2" d="M306.19,231.86a5.14,5.14,0,1,0,5.15-5A5.07,5.07,0,0,0,306.19,231.86Z"/><path class="cls-2" d="M172.36,324.26a5.14,5.14,0,1,0,5.38-4.72A5.1,5.1,0,0,0,172.36,324.26Z"/></svg>